<svg version="1" xmlns="http://www.w3.org/2000/svg" width="3200" height="3200" viewBox="0 0 2400.000000 2400.000000"><path d="M1205.9 277.4c-.2.2-13 .7-28.4 1-15.4.4-30.2.8-33 1-2.7.2-9.3.7-14.5 1-5.2.4-11.1.9-13 1.1-1.9.2-6.2.7-9.5 1-3.3.3-7.7.8-9.8 1.1-2.1.4-5.7.8-8 .9-3.8.3-12.4 1.4-15.7 2-.8.1-4 .6-7 1s-6.2.9-7 1c-.8.1-3.5.6-6 1-8.3 1.2-9.5 1.5-20 3.5-5.8 1.1-11.8 2.2-13.5 2.4-1.6.1-4.3.6-6 1-1.6.3-3.9.8-5 1-1.1.2-4.7 1.1-8 1.9-3.3.9-7.3 1.8-9 2.1-1.6.2-3.1.5-3.2.6-.4.3-.4.3-7.8 2-42.1 9.5-113 33.5-149.8 50.4-4.2 2-7.9 3.6-8.1 3.6-1.5 0-45.9 21.8-59.6 29.4-3.6 1.9-8.1 4.4-10 5.4-6.5 3.4-20.5 11.5-25.8 14.8-2.9 1.9-5.4 3.4-5.7 3.4-.2 0-8 4.9-17.2 10.8-21.9 14.1-25.6 16.5-27 17.7-.6.5-4.1 3-7.7 5.5-3.7 2.5-9.9 6.9-13.9 9.8-3.9 2.9-8.3 6.1-9.6 7-1.3.9-2.8 2.2-3.5 2.7-.6.6-2.9 2.4-5.1 4-3.6 2.7-16.7 13-22 17.4-7 5.7-13.1 10.8-14.5 12.1-2.2 2-13.5 11.9-16.3 14.2C569.5 526 525.6 570 511 587c-1.2 1.4-3.6 4.1-5.3 6.1-1.8 1.9-5 5.7-7.2 8.3-2.2 2.7-4.8 5.8-5.9 7-1 1.1-3.5 4.1-5.5 6.6s-3.8 4.7-4.1 5c-1 .9-17.4 22.2-25.1 32.5-9.3 12.5-10.2 13.8-26 37.5-7.1 10.7-13.3 19.9-13.7 20.5-.9 1.2-18.2 30.1-19.7 33-.6 1.1-2.7 4.9-4.7 8.5-13.9 24.9-27.5 52.4-38.5 77.5-2 4.4-4.3 9.8-5.3 12-2.7 5.9-15 37.4-15 38.3 0 .4-.6 1.8-1.3 3.2-.7 1.4-4.6 12.6-8.6 25-4.1 12.4-7.6 23.2-7.9 24-.3.8-.6 1.9-.7 2.5-.2.5-1.1 3.7-2.1 7s-1.9 6.4-2 7c-.2.5-1.2 4.6-2.4 9-1.1 4.4-2.4 8.7-2.7 9.5-.3.8-.7 2.1-.9 2.9-.4 2.1-2.4 10.7-5.1 22.1-1.4 5.8-2.7 11.4-2.9 12.5-.2 1.1-.8 4.2-1.4 7-1.1 5.5-1.8 8.7-2.5 12.5-.3 1.4-.7 3.6-1 5-.3 1.4-.8 3.8-1 5.5-.3 1.6-1 5.5-1.5 8.5s-1.2 7.3-1.5 9.5c-.3 2.2-1 6.2-1.5 9-.5 2.7-1.4 8.8-2 13.5-.5 4.7-1.3 10.3-1.5 12.5-.3 2.2-.8 5.8-1 8-.2 2.2-.6 6.5-1 9.5-1.6 15.4-3.2 35.9-4.1 53.5-1 20-.3 78.6 1.1 98.5.3 3.6.7 10.3 1 15 .3 4.7.7 10.1 1 12 .2 1.9.7 6.6 1 10.5.4 3.8.8 8.1 1 9.5.2 1.4.7 5 1 8 .3 3 .8 6.6 1 8 .5 3.6 1.4 9.9 2 14.5.3 2.3.7 5 .9 6 .2 1.1.9 5.4 1.6 9.5 1.3 8.5 1.3 8.6 4 23.2 1.7 8.9 3.4 17.5 5.5 26.8 1.4 6.6 6.8 28.7 8.1 33.5 2.1 8 3.4 12.6 3.9 14.9.2 1.1 1.1 4 1.9 6.5.7 2.5 2.4 8 3.6 12.1 1.2 4.1 2.9 9.5 3.7 12 .9 2.5 1.9 5.8 2.3 7.5 3.3 12.7 23.6 65.3 33.9 87.8 1.7 3.7 3.1 7 3.1 7.2 0 .5 17.6 37.3 19 39.5.5.8 3 5.5 5.6 10.5 10.3 19.6 26.7 47.7 38.2 65.5 9.6 14.8 16.5 25.2 17.5 26.5.4.5 5.8 8 12 16.5 15.4 21.3 19 26 19.9 26 .4 0 .8.6.8 1.4 0 .7 1 2.4 2.3 3.7 1.3 1.3 6 7 10.5 12.5 4.4 5.6 8.7 10.8 9.4 11.6.7.7 3.8 4.3 6.8 7.8 3 3.6 5.9 7 6.5 7.6.5.6 4.6 5.1 9 10 8.7 9.7 50.6 51.8 59.5 59.9 3.1 2.7 8.7 7.7 12.4 11 3.8 3.3 7.4 6.5 8 7 1.1 1 14.3 12.2 18.1 15.4 1.1.9 7.2 5.7 13.5 10.6 6.3 4.9 11.7 9.3 12 9.6.3.4 2.1 1.7 4 3 1.9 1.4 6.9 4.9 11 8 21.7 16.1 67 45.9 69.8 45.9.7 0 1.2.4 1.2.8 0 .5 1.5 1.6 3.3 2.5 1.7.9 4.6 2.5 6.2 3.5 30.8 18.2 71.3 38.4 105.5 52.7 6.3 2.6 13 5.4 14.8 6.2 13 5.6 60 21.9 78.7 27.3 6.1 1.7 12.1 3.6 13.5 4.1 1.4.5 8.6 2.4 16 4.3s14.2 3.7 15 4c.8.3 2.9.7 4.5 1 1.7.3 4.8 1 7 1.5 6.8 1.6 36.8 7.9 40.5 8.5 3.6.6 6.9 1.2 13 2.2 9.6 1.6 15.1 2.5 18.5 2.9 1.7.2 4.4.6 6 .8 4 .7 9.9 1.5 15.5 2.2 2.5.3 6.1.8 8 1 1.9.3 5.8.7 8.5 1 2.8.2 7.3.7 10 1 42.6 4.3 106.6 5.2 151.5 2 16.3-1.1 21.9-1.6 25.5-2 2.2-.3 6.7-.7 9.9-1 3.3-.3 6.7-.7 7.5-1 .9-.2 4.3-.7 7.6-.9 7.9-.7 36.5-4.9 38.5-5.6.3-.2.8-.2 1.2-.1.4 0 3.1-.4 6-.9 2.9-.6 6.5-1.3 8.1-1.5 5.5-1 8.3-1.5 10.7-2 1.4-.3 4.1-.8 6-1.1 1.9-.3 7.3-1.5 12-2.6s9.6-2.2 11-2.4c1.4-.3 5-1.1 8-1.9 5.7-1.4 10.6-2.6 12.7-3.1.6-.1 6.3-1.6 12.5-3.4 6.2-1.7 12.2-3.4 13.3-3.6 1.2-.2 4.8-1.3 8-2.4l6-2c0 .1 1.3-.3 2.8-.9 1.6-.6 3.4-1.1 4-1.1.7 0 11.8-3.6 24.7-8.1 20.9-7.2 27.5-9.6 34.5-12.4 1.1-.4 7.6-3 14.5-5.8 6.9-2.7 15.8-6.5 19.8-8.3 4.1-1.9 7.5-3.4 7.7-3.4.7 0 20.4-9.4 35.5-16.8 13.8-6.8 21.4-10.9 43.5-23.2 31-17.2 75.2-46.4 104.5-68.9 4.7-3.6 9-6.9 9.5-7.3.9-.7 9.7-7.8 19.9-16.1 4.6-3.8 9.9-8.3 13.4-11.5 1.4-1.2 4.8-4.1 7.6-6.5 10.5-8.8 34.8-32 51.6-49.2 11.9-12.1 13.8-14.1 23.7-25.2 3.7-4.2 7.7-8.5 8.8-9.7 2-2.1 24.1-28.6 30.2-36.2 3.6-4.5 16.8-21.8 19.8-26 3.6-5 9.4-12.9 10.2-13.9.5-.6 5.3-7.8 10.8-16 5.5-8.3 10.3-15.2 10.6-15.5.3-.3 1.9-2.8 3.5-5.5 2.7-4.8 6.6-10.9 8.1-13 .5-.6 1.7-2.6 2.7-4.5 1.1-1.9 3.1-5.3 4.4-7.5 1.4-2.2 2.5-4.2 2.6-4.5 0-.3 1.7-3.2 3.8-6.5 2.1-3.2 4.1-6.9 4.4-8.2.4-1.3.9-2.3 1.3-2.3.3 0 3.5-5.7 7.1-12.8 3.6-7 6.8-12.9 7.1-13.2.8-.7 13.6-27.2 23.2-48 1.4-3 5.2-12.1 8.6-20.1 8.4-20.2 8.4-20.2 8.7-22 .2-.8 1-2.9 1.9-4.5.8-1.6 1.5-3.6 1.5-4.4 0-.9.4-2 .9-2.5.5-.6 2.1-4.8 3.6-9.5s3.1-9 3.5-9.5c.5-.6.8-1.3.9-1.8 0-.4 2-6.9 4.5-14.5 2.4-7.5 4.6-14.6 4.8-15.7.2-1.1.5-2.2.8-2.5.3-.3 1.4-3.7 2.4-7.5 1.1-3.9 2.5-9.3 3.3-12 1.7-5.7 6.3-23.3 6.8-25.5.2-.8 1.2-5.1 2.3-9.5 1.1-4.4 2.3-9.4 2.6-11 .2-1.7 1.8-9.3 3.5-17 2.7-12.9 3.4-16.6 4.7-25 .3-1.7 1.2-6.6 1.9-11 .8-4.4 1.7-10.3 2.1-13 .3-2.8.8-5.9 1-7 .4-2 2.2-16.2 2.9-22.5.2-1.9.6-6.2 1-9.5.9-8.9 2.4-25.4 3-35 2.9-41.5 2.1-106.7-1.9-146.5-.7-6.1-1.8-16.9-2.1-20-.2-1.4-.6-5.4-1-9-.3-3.6-.8-7.2-1-8-.2-.8-.7-4.1-1-7.3-.4-3.2-.8-6.8-1.1-8-.2-1.2-.6-3.6-.9-5.2-.3-1.7-.7-4.4-1-6-.3-1.7-.7-4.8-1-7-.3-2.2-.7-5.1-1-6.5-.3-1.4-.8-4.1-1.1-6-.3-1.9-.8-3.8-1-4.1-.2-.4-.6-2.8-.9-5.5-.4-2.6-.8-5.1-1-5.4-.2-.4-.7-2.2-1-4.1-.3-1.9-1.1-5.2-1.7-7.4-.6-2.2-1.2-5.4-1.5-7-.6-3.8-9.4-39.5-12.2-49.5-1.2-4.1-2.3-8.2-2.6-9-7.2-26.7-25.7-77.2-41.7-114-6.4-14.7-29.2-60.9-34.6-70-1.1-1.9-3.5-6.1-5.2-9.4-13-24.3-53-85.1-67.7-103.1-.5-.6-3.1-3.9-5.8-7.5-4.8-6.4-25-31.4-27-33.6-.5-.6-3-3.4-5.5-6.3-13.6-15.8-26.6-29.7-47-50.1-18.9-18.9-23.4-23.1-39-37-4-3.6-8.6-7.7-10.3-9.3-1.6-1.5-3.2-2.7-3.6-2.7-.3 0-2.6-1.9-5.1-4.3-2.5-2.3-6.1-5.4-8-6.8-1.9-1.5-4.6-3.7-6-4.9-1.4-1.2-5.9-4.7-10-7.8-4.1-3.2-8-6.2-8.6-6.7-.6-.6-2.2-1.8-3.5-2.8-1.3-.9-6.7-4.9-11.9-8.8-10.8-8-12.4-9.2-34.5-23.9-13.8-9.2-21-13.9-29.9-19.3-1.1-.7-4.4-2.7-7.2-4.5-2.9-1.7-5.7-3.2-6.3-3.2-.5 0-1.1-.4-1.3-.8-.3-.8-5.3-3.8-14.6-8.8-3-1.6-10.6-5.7-17-9.2-19.3-10.3-44.8-22.7-64.7-31.3-4.9-2.2-9.9-4.4-11-4.8-2.2-1-5.7-2.4-6.5-2.5-.3-.1-1.4-.6-2.5-1.2s-4.7-2.1-8-3.3c-3.3-1.3-6.9-2.7-8-3.2-14.3-6.2-84.3-29-96-31.2-1.1-.2-2.7-.6-3.5-1-1.8-.6-9.7-2.6-12.5-3.1-1.1-.2-4.7-1.1-8-1.9-3.3-.9-9.4-2.3-13.5-3.2-4.1-.9-8.4-1.8-9.5-2.1-2.3-.6-4.7-1-9.5-1.8-4.4-.7-7.7-1.4-9.8-2-.9-.3-3.5-.7-5.7-1.1-2.2-.3-7.8-1.2-12.5-2-8.2-1.3-11.8-1.9-19.7-3-2.1-.3-5-.8-6.5-1.1-1.4-.3-4.6-.7-7-.9-7-.7-14.1-1.5-17.8-2.1-1.9-.3-6-.7-9-1-3-.2-7.5-.6-10-.9-19.2-1.7-27.6-2.2-54-3-11.8-.4-21.8-.9-22.1-1.1-.3-.2-.8-.2-1 0zm178.6 313.8c12.2 3.4 26.4 12 32.9 20 6.1 7.7 8.6 11.1 8.6 12.1 0 .6.6 1.8 1.4 2.6 1.3 1.5 4.2 9.1 5.2 13.6 2.6 11.7 2.6 10.3.9 118.5-.3 17.9-.8 47.8-1 66.5-.7 46.4-1.4 93.9-2 131-.2 17-.7 50.1-1.1 73.5-.3 23.4-.7 51.9-.9 63.5-.2 11.5-.7 43-1.1 70-1.3 88-.9 140 1.1 143.5.1.3.5 2.7.9 5.5 2.3 19 6.7 34.8 13.7 48.8 3.3 6.8 11.1 18.8 14.9 23 1.4 1.6 6.2 7.9 10.8 14 4.5 6.2 9.8 13 11.6 15.2 18.8 22.2 23.2 27.9 30.8 39.5 8.1 12.3 22 39.4 23.3 45.4.1.6.8 2.4 1.4 4.1.7 1.6 1.4 3.8 1.6 4.8.2.9.7 2.2 1.1 2.8 1 1.8 8.8 30.8 9.9 37.4.3 1.6 1 5.5 1.6 8.5.5 3 1.2 7.5 1.5 10 .2 2.5.7 5.6.9 7 .3 1.4.7 5.4 1 9 .3 3.6.8 7.2 1 8 .7 2.4 1.8 31.3 1.8 48 0 14.5-.8 32.9-1.8 41-.2 1.9-.7 6-1 9-.3 3-.8 6.2-1 7-.2.8-.6 3.7-1 6.5-2 16.8-8.8 44.5-14.9 61.7-6.3 17.3-7.6 20.6-14.5 34-13.4 26.7-28.3 46.5-47.7 63.8-7.8 6.9-23.3 18-25.3 18-.5 0-1.1.4-1.3.8-.4 1.1-16 8.5-24.3 11.5-10 3.7-22.1 6.7-33.1 8.2-3.6.5-20.6 1.7-22.9 1.7-5-.1-21.6-1.3-24-1.7-1.6-.3-4.6-.8-6.5-1.1-7.4-1.3-8.6-1.5-12.5-2.6-2.2-.7-4.2-1.2-4.5-1.3-23.1-6.2-50.1-22.5-68.4-41.1-7.2-7.3-11.6-12.4-16.9-19.4-3.2-4.1-6.2-8-6.7-8.7-.6-.7-1-1.4-1-1.7 0-.2-1.9-3.3-4.1-6.7-14.4-21.6-31.8-66.5-36.4-93.9-.3-1.9-.8-4.3-1.1-5.3-.3-1.1-.7-2.9-.9-4-.2-1.2-1-6.7-1.8-12.2-2.6-17-3.2-23-4.2-42.7-1.2-22.4-.7-53.5 1-67.8.2-1.9.7-6.7 1.1-10.5.3-3.9.8-7.2.9-7.5.2-.3.6-3 1-6 1.6-12.7 7.6-39.4 11-49 .9-2.5 1.9-5.6 2.1-6.9.3-1.3 1.1-3.6 1.9-5.2.8-1.5 1.5-3.3 1.5-3.8 0-2.5 14-31.7 19.7-41.2 6.8-11.3 23-33.2 30.6-41.4 3.2-3.5 13.7-17.5 13.7-18.3 0-.4.7-1.7 1.5-2.7.8-1.1 3.9-5.4 7-9.5 3-4.1 6.4-8.6 7.5-10 1.1-1.4 2-3.1 2-3.8 0-.6.4-1.2.9-1.2 1 0 1.6-1.1 7.6-13.1 3.2-6.2 10.9-26.9 10-26.9-.2 0 .1-1.5.6-3.3.5-1.7 1.1-4.3 1.4-5.7.3-1.4.7-3.6 1-5 .3-1.4.8-4.5 1.1-7 .3-2.5.8-5.2.9-6.1 2.1-10.8 2.5-84.3 1-177.9-.3-22.3-.8-57.4-1-78-.3-20.6-.7-52.8-.9-71.5-.6-43.1-1.5-111.7-2.1-157.5-.3-19.5-.7-54.2-1-77-1.2-90.7-1.2-94.1.1-100.6 1.8-8.3 5.6-17.6 9.9-24.2 3.5-5.1 15.1-17.2 16.6-17.2.4 0 2.1-1.2 3.8-2.6 1.7-1.4 3.1-2.2 3.1-1.7 0 .4.4.3.8-.2.6-.9 5.4-3.5 7.2-4 .3-.1 2.3-.7 4.5-1.3 12.2-3.7 26.5-4.1 38-1zM926.7 755.3v150.2l2.4 5.5c7.9 18.6 31.3 23.6 46.4 9.9 1.7-1.6 4.5-5.5 6.1-8.7l2.8-5.7.1-150.5V605.5l35.6-.2 35.6-.2.1 149.2c0 82.1.3 149.9.5 150.7.2.8.7 2.8 1.2 4.5 1.8 6.6 7.9 13.3 15.7 16.9 4.3 2 6.6 2.4 12.3 2.2 11.1-.5 19.8-6 25.1-15.9l2.8-5.2.1-151.2V605.1l34 .2 33.9.2.2 7c.1 3.8.5 13.3.9 21 .4 7.7.8 18.9 1 25 .2 6 .7 16.8 1 24 .7 16.9 1.3 33.7 2 50.5.3 7.4.7 18.4 1 24.5.5 10.5.9 20.4 2 49 .3 7.1.7 18.6 1 25.5.6 13.2 1.1 26.9 2 49 .2 7.4.7 18.3 1 24.1 1.9 38.5 2.4 71.3 1.1 87.4-.4 5.4-.9 10.2-1.1 10.5-.2.3-.6 3.2-1 6.5-2.5 24-13.8 56.1-24.5 69.9-3.7 4.7-10.6 12.3-13.4 14.8-1.7 1.5-3.8 3.3-4.6 4-2.9 2.6-10.7 7.2-19.4 11.6-4.9 2.4-9.8 5.2-11 6.1-3.7 2.9-16.6 16.1-16.6 17.1 0 .5-.6 1.5-1.2 2.2-1.4 1.5-2 2.6-6.1 10.3-5.9 11.4-12 30.7-13.3 42-.3 2.2-.7 4.7-.9 5.5-2 7.1-2.4 55.5-1.1 139.5.3 18.7.8 50.2 1.1 70 .3 19.8.7 52.9 1 73.5.7 43.5 1.2 79.4 2 136 .3 22.3.7 53.1 1 68.5 2.4 153.2 2.4 157.6.2 167-3.2 14.1-10.2 25.8-21.3 35.5-3.5 3-6.9 5.7-7.6 5.9-.7.2-1.5.7-1.8 1.2-.8 1.2-11.1 5.6-17.5 7.5-3.9 1.1-9.6 1.8-16.5 1.8-14.1.1-19.7-1-29.3-5.6-19.6-9.5-31.8-24.1-37.6-45.3-2-7.3-2.1-21.3-.6-108.5.3-16.8.7-45.8 1-64.5.7-45.8 1.4-91.4 2-130 .3-17.6.7-45.3 1-61.5.5-32.6 1.8-116.1 3-190.5.6-35.9.6-74.9.1-81.5-3.6-47-18.2-81-41.5-96.4-3.6-2.4-8.8-5.4-11.6-6.7-10.7-4.9-16-8.6-25.6-17.9-9.5-9.2-18-22.5-24-37.8-.5-1.2-1.3-3.2-1.9-4.5-1.6-3.5-6.6-23.1-7.4-29.2-.2-1.1-.6-3.6-1-5.5-3.7-21.6-4.1-54.7-1.1-103 .3-4.1.7-12.7 1-19 .3-6.3.7-15.6 1-20.5.3-5 .7-13.7 1-19.5.2-5.8.7-15 .9-20.5.3-5.5.8-14.7 1.1-20.5.3-5.8.7-14.6 1-19.5.3-5 .7-13.5 1-19 .2-5.5.6-14.5 1-20 .3-5.5.8-15.2 1.1-21.5.3-6.3.7-14.7.9-18.5 1.1-21.8 1.5-30.2 2-41 .3-6.6.7-15.6 1-20 .5-7.9 1.5-26.4 2-38 .2-3.3.4-6.5.4-7.2.1-.8 8.4-1.2 32.4-1.2l32.4-.1v150.3z"/></svg>